# xmcd
#
# Track frame offsets: 
#        150
#        23466
#        48421
#        75127
#        101360
#        125525
#        147746
#        170681
#        194039
#        216980
#
# Disc length: 3185 seconds
#
# Revision: 2
# Processed by: cddbd v1.5.2PL0 Copyright (c) Steve Scherf et al.
# Submitted via: ExactAudioCopy v1.3
#
DISCID=890c6f0a
DTITLE=Robbie Mychals - Robbie Mychals (Digitally Remastered)
DYEAR=1990
DGENRE=Funk
TTITLE0=One Mile From Paradise
TTITLE1=Call Me
TTITLE2=Do For You Do For Me
TTITLE3=Holding On To Love
TTITLE4=The Right Time
TTITLE5=How Many Roads
TTITLE6=Climin Mountains
TTITLE7=Stay By My Side
TTITLE8=Can't Get Enuff Of U
TTITLE9=Hold Me
EXTD=ID3G:  42
EXTT0=
EXTT1=
EXTT2=
EXTT3=
EXTT4=
EXTT5=
EXTT6=
EXTT7=
EXTT8=
EXTT9=
PLAYORDER=
